# xmcd
#
# Track frame offsets:
# 150
# 14293
# 25050
#
# Disc length: 524 seconds
#
#
# Revision: 0
# Processed by: cddbd v1.5.2PL0 Copyright (c) Steve Scherf et al.
# Submitted via: FreeRIP 2.96 
#
DISCID=16020a03
DTITLE=Etta James - I Just Wanna Make Love to You
DYEAR=1967
DGENRE=Blues
TTITLE0=its goin down
TTITLE1=Tell Mama
TTITLE2=Stormy Weather
EXTD=YEAR: 1967
EXTT0=
EXTT1=
EXTT2=
PLAYORDER=
